<?xml version="1.0" standalone="no"?>
<!DOCTYPE svg PUBLIC "-//W3C//DTD SVG 20010904//EN"
 "http://www.w3.org/TR/2001/REC-SVG-20010904/DTD/svg10.dtd">
<svg version="1.0" xmlns="http://www.w3.org/2000/svg"
 width="140.000000pt" height="140.000000pt" viewBox="0 0 140.000000 140.000000"
 preserveAspectRatio="xMidYMid meet">
<metadata>
Created by potrace 1.14, written by Peter Selinger 2001-2017
</metadata>
<g transform="translate(0.000000,140.000000) scale(0.100000,-0.100000)"
fill="#000000" stroke="none">
<path d="M677 1339 c-14 -30 -52 -117 -87 -194 -34 -77 -75 -168 -91 -203 -16
-35 -29 -65 -29 -68 0 -2 -18 -43 -40 -90 -22 -47 -40 -87 -40 -89 0 -2 -13
-32 -29 -67 -16 -35 -79 -178 -141 -318 -62 -140 -117 -259 -122 -265 -4 -5
-8 -16 -8 -25 0 -15 21 -17 192 -16 l192 1 31 60 c25 52 34 61 55 59 14 -1 30
2 36 7 7 6 22 12 34 14 33 6 49 24 44 48 -3 12 -7 59 -9 105 -3 46 -8 88 -11
94 -4 5 -6 41 -6 79 0 38 -3 69 -8 69 -10 0 -21 35 -27 92 -5 46 -4 48 32 69
32 19 35 25 30 50 -9 39 2 69 25 69 26 0 39 -27 33 -70 -5 -34 -3 -38 26 -50
17 -7 32 -16 32 -21 7 -50 -4 -112 -24 -138 -6 -7 -12 -41 -14 -75 -3 -71 -8
-144 -18 -237 -8 -70 -6 -75 39 -83 15 -3 34 -10 42 -17 7 -6 20 -9 27 -6 21
8 32 -4 59 -63 l25 -55 197 -1 c108 0 196 1 196 2 0 1 -31 71 -69 156 -38 85
-76 172 -86 194 -9 21 -25 57 -36 79 -10 22 -63 141 -117 265 -55 124 -108
245 -120 270 -11 25 -57 128 -102 230 -45 102 -84 187 -86 189 -2 2 -14 -21
-27 -50z"/>
</g>
</svg>
